<svg xmlns="http://www.w3.org/2000/svg" viewBox="0 0 32 32" width="32" height="32">
  <defs>
    <linearGradient id="heartGrad" x1="0%" y1="0%" x2="100%" y2="100%">
      <stop offset="0%" stop-color="#fb7185" />
      <stop offset="40%" stop-color="#e11d48" />
      <stop offset="100%" stop-color="#881337" />
    </linearGradient>
    <filter id="shadow" x="-20%" y="-20%" width="140%" height="140%">
      <feDropShadow dx="0" dy="1.5" stdDeviation="1.5" flood-color="#4c0519" flood-opacity="0.4" />
    </filter>
  </defs>
  <!-- Heart Body -->
  <path
    d="M16 28.5 C16 28.5 3 20.5 3 11.5 A7.5 7.5 0 0 1 16 7.2 A7.5 7.5 0 0 1 29 11.5 C29 20.5 16 28.5 16 28.5 Z"
    fill="url(#heartGrad)"
    filter="url(#shadow)"
  />
  <!-- Gloss highlight -->
  <path
    d="M7 11.5 C7 8.5 9 6.5 12 6.5 C10 7.5 8.5 9.5 8.5 12 C8.5 13 8.7 14 9.1 14.8 C7.8 13.8 7 12.7 7 11.5 Z"
    fill="#ffffff"
    opacity="0.5"
  />
</svg>
